<svg xmlns="http://www.w3.org/2000/svg" viewBox="0 0 102.84 102.85"><defs><style>.cls-1{isolation:isolate;}.cls-2{fill:#50bcc4;}.cls-3{fill:#f2f2f2;}.cls-4{fill:#fff;}.cls-5{fill:#b4d8e0;}.cls-6{fill:#f7b701;}.cls-7{fill:#f7a601;}.cls-8{fill:#a8a191;}.cls-14,.cls-15,.cls-16,.cls-8{mix-blend-mode:multiply;}.cls-15,.cls-8{opacity:0.42;}.cls-9{fill:#fc7649;}.cls-10{fill:#cc603b;}.cls-11{fill:#655b79;}.cls-12{fill:#a94f31;}.cls-13{fill:none;stroke:#fff;stroke-linecap:round;stroke-linejoin:round;stroke-width:0.25px;}.cls-14{fill:#216186;opacity:0.25;}.cls-15,.cls-17{fill:#7a8494;}.cls-16{opacity:0.22;}</style></defs><g class="cls-1"><g id="Layer_2" data-name="Layer 2"><g id="Layer_1-2" data-name="Layer 1"><path class="cls-2" d="M0,51.42A51.42,51.42,0,1,0,51.42,0,51.43,51.43,0,0,0,0,51.42Z"/><polygon class="cls-3" points="79.49 45.79 79.49 82.25 20.31 82.25 20.31 45.79 49.89 24.59 79.49 45.79"/><rect class="cls-4" x="26.32" y="22.88" width="47.16" height="54.57"/><rect class="cls-5" x="29.03" y="26.32" width="16.59" height="14.08"/><rect class="cls-5" x="47.92" y="26.32" width="23.16" height="2.25"/><rect class="cls-5" x="47.92" y="30.23" width="18.47" height="2.25"/><rect class="cls-5" x="47.92" y="34.15" width="23.16" height="2.25"/><rect class="cls-5" x="47.92" y="38.06" width="20.03" height="2.25"/><rect class="cls-5" x="29.03" y="41.97" width="42.05" height="2.25"/><rect class="cls-5" x="29.03" y="45.88" width="35.32" height="2.25"/><rect class="cls-5" x="29.03" y="49.8" width="38.14" height="2.25"/><rect class="cls-5" x="29.03" y="53.71" width="42.05" height="2.25"/><rect class="cls-5" x="29.03" y="57.62" width="32.66" height="2.25"/><rect class="cls-5" x="29.03" y="61.53" width="37.35" height="2.25"/><rect class="cls-5" x="29.03" y="65.45" width="42.05" height="2.25"/><polygon class="cls-6" points="79.49 45.79 79.49 82.25 20.31 82.25 20.31 45.79 49.9 64.02 79.49 45.79"/><polygon class="cls-7" points="79.49 82.25 49.9 59.03 20.31 82.25 79.49 82.25"/><polygon class="cls-8" points="46.33 61.82 20.31 82.25 43.66 60.17 46.33 61.82"/><polygon class="cls-8" points="79.49 82.25 53.45 61.82 56.31 60.06 79.49 82.25"/><polygon class="cls-8" points="79.5 45.79 56.14 60.17 53.47 61.83 53.46 61.83 49.9 59.03 46.34 61.83 46.33 61.83 43.66 60.17 20.31 45.79 20.31 45.79 20.31 45.79 46.33 61 49.9 58.26 53.47 61 79.5 45.79 79.5 45.79 79.5 45.79"/><path class="cls-9" d="M36.55,66.12a4.77,4.77,0,0,1,1.22,4.82l-6-6.08A4.77,4.77,0,0,1,36.55,66.12Z"/><polygon class="cls-4" points="25.84 58.28 44.25 76.69 28.79 81.58 21.01 73.74 21.01 73.71 25.84 58.28"/><path class="cls-10" d="M22.72,80.78l.17.18.71.71L26,84.08l.1.11,2.4,2.41.11.12L31,89.13l.08.09,2.39,2.41.24.24A3.32,3.32,0,1,1,29,96.53l-.22-.22L28.45,96l-1.71-1.73-.32-.32-.13-.13L23.92,91.4l-.13-.13-2.36-2.39-.13-.12-2.37-2.4-.78-.77-.39-.4a7.6,7.6,0,0,0,1.91-1.39Z"/><path class="cls-4" d="M38.58,64.83a.64.64,0,0,1-.83-.07.6.6,0,0,1,0-.86l3.19-3.18a.62.62,0,0,1,.87,0,.6.6,0,0,1,0,.86l-3.2,3.18Z"/><path class="cls-4" d="M35.1,62.74a.63.63,0,0,1-.43.1.66.66,0,0,1-.55-.7l.41-4.35a.57.57,0,0,1,.67-.51.66.66,0,0,1,.55.7l-.41,4.35A.58.58,0,0,1,35.1,62.74Z"/><path class="cls-4" d="M45.29,67.9a.55.55,0,0,0,.1-.42.66.66,0,0,0-.7-.56l-4.34.41a.57.57,0,0,0-.51.67.65.65,0,0,0,.69.56l4.35-.42A.53.53,0,0,0,45.29,67.9Z"/><path class="cls-9" d="M21,73.7v0l7.78,7.84-3.7,3.7-1.57,1.55-1.6,1.59a4.15,4.15,0,0,1-.51.43,4.77,4.77,0,0,1-.65.41,4.85,4.85,0,0,1-1.47.51l-.34.06a5.77,5.77,0,0,1-6.28-5.52,5,5,0,0,1,1.47-3.74L15.71,79h0Z"/><rect class="cls-4" x="18.53" y="77.84" width="1.27" height="11.05" transform="translate(-53.31 37.93) rotate(-44.97)"/><path class="cls-9" d="M97.68,24.59A15.65,15.65,0,1,1,82,8.94,15.65,15.65,0,0,1,97.68,24.59Z"/><path class="cls-4" d="M85.58,32.18H82.15A7.19,7.19,0,0,0,75,25V21.57A10.62,10.62,0,0,1,85.58,32.18Z"/><path class="cls-4" d="M92.43,32.18H89a14,14,0,0,0-14-14V14.72A17.48,17.48,0,0,1,92.43,32.18Z"/><path class="cls-4" d="M78.66,30.33a1.85,1.85,0,1,1-1.84-1.84A1.84,1.84,0,0,1,78.66,30.33Z"/><polygon class="cls-8" points="73.48 41.48 73.48 49.31 75.92 47.88 75.92 43.24 73.48 41.48"/><rect class="cls-9" x="9.35" y="0.46" width="41.7" height="29.75"/><rect class="cls-11" x="10.71" y="1.56" width="38.99" height="23.73"/><path class="cls-12" d="M14.72,27.72a2,2,0,1,1-2-2A2,2,0,0,1,14.72,27.72Z"/><path class="cls-12" d="M19.13,27.72a2,2,0,1,1-2-2A2,2,0,0,1,19.13,27.72Z"/><polygon class="cls-13" points="11.99 26.55 11.99 28.89 13.92 27.72 11.99 26.55"/><path class="cls-9" d="M34.09,13.43a3.89,3.89,0,1,1-3.88-3.88A3.88,3.88,0,0,1,34.09,13.43Z"/><polygon class="cls-4" points="28.79 11.16 28.79 15.7 32.54 13.43 28.79 11.16"/><path class="cls-14" d="M33.86,14.74a3.87,3.87,0,0,1-3.46,2.58l-1.61-1.61,3.75-2.28Z"/><path class="cls-4" d="M16.56,28.92a.12.12,0,0,1-.13-.12V26.65a.13.13,0,0,1,.13-.13.12.12,0,0,1,.12.13V28.8A.12.12,0,0,1,16.56,28.92Z"/><path class="cls-4" d="M17.69,28.92a.12.12,0,0,1-.12-.12V26.65a.12.12,0,0,1,.12-.13.13.13,0,0,1,.13.13V28.8A.12.12,0,0,1,17.69,28.92Z"/><rect class="cls-12" x="21.19" y="26.31" width="25.06" height="0.73"/><path class="cls-3" d="M22,26.68a.85.85,0,0,1-1.7,0,.85.85,0,0,1,1.7,0Z"/><rect class="cls-3" x="47.51" y="26.31" width="2.18" height="0.55"/><rect class="cls-3" x="48.07" y="27.05" width="1.63" height="0.55"/><rect class="cls-3" x="48.61" y="27.78" width="1.09" height="0.55"/><rect class="cls-3" x="49.15" y="28.51" width="0.54" height="0.55"/><polygon class="cls-15" points="55.7 22.88 55.7 34.85 26.32 34.85 26.32 30.22 51.05 30.22 51.05 22.88 55.7 22.88"/><g class="cls-16"><path class="cls-17" d="M92.43,52.27l0,3v.38L92.31,68a.58.58,0,0,1,0,.19c.23,1.44-.89,3-2.79,3.83a5.26,5.26,0,0,1-2.07.43,3,3,0,0,1-2.88-1.6c-.64-1.55.51-3.46,2.63-4.36A5.53,5.53,0,0,1,89.26,66a3.92,3.92,0,0,1,1.36.22l.06-9.64L79.55,59.77V69.89a.76.76,0,0,1,0,.15A2.86,2.86,0,0,1,79,72.13a5,5,0,0,1-2.26,1.78,5.31,5.31,0,0,1-2.07.44,2.94,2.94,0,0,1-2.88-1.61,2.71,2.71,0,0,1,.38-2.57,5,5,0,0,1,2.26-1.78A5.28,5.28,0,0,1,76.52,68a3.93,3.93,0,0,1,1.32.21V56a.85.85,0,0,1,.62-.82l12.87-3.76a.87.87,0,0,1,.75.14A.86.86,0,0,1,92.43,52.27Z"/></g><path class="cls-4" d="M89.71,49.56l0,3v.39L89.6,65.24a1.23,1.23,0,0,1,0,.19c.23,1.43-.9,3-2.79,3.83a5.48,5.48,0,0,1-2.07.43,2.92,2.92,0,0,1-2.88-1.61c-.65-1.55.51-3.46,2.63-4.35a5.5,5.5,0,0,1,2.07-.44,3.88,3.88,0,0,1,1.36.23L88,53.87,76.84,57.06V67.18a.59.59,0,0,1,0,.14,2.82,2.82,0,0,1-.51,2.1,5.15,5.15,0,0,1-2.26,1.78,5.5,5.5,0,0,1-2.07.44A3,3,0,0,1,69.09,70a2.73,2.73,0,0,1,.38-2.58,5.21,5.21,0,0,1,2.26-1.78,5.48,5.48,0,0,1,2.07-.43,4,4,0,0,1,1.33.21V53.31a.84.84,0,0,1,.61-.82l12.88-3.76a.84.84,0,0,1,.75.14A.82.82,0,0,1,89.71,49.56Z"/><path class="cls-11" d="M63.62,76.35c5.84,0,9.58,4,9.58,9.63,0,5-3.33,7.44-6.17,7.44a3,3,0,0,1-3.11-2.06h-.05a4.38,4.38,0,0,1-3.25,1.79c-2.14,0-3.57-1.57-3.57-4.06,0-3.3,2.35-6.63,5.46-6.63a2.12,2.12,0,0,1,2.06,1.36h.05L65,82.68h2.46l-1.24,5.95c-.38,1.57,0,2.33,1.24,2.33,1.62,0,3.22-1.9,3.22-4.87,0-3.87-2.08-7.33-7.39-7.33-4.62,0-9.19,3.95-9.19,10,0,5.33,3.68,7.9,7.9,7.9a9.55,9.55,0,0,0,4.11-1L67,97.8a10.84,10.84,0,0,1-5.3,1.3c-5.41,0-10.25-3.3-10.25-10.2C51.42,81.33,57,76.35,63.62,76.35ZM61.46,90.66c.56,0,1.11-.32,1.78-1.22l.65-3.65A1.35,1.35,0,0,0,62.65,85c-1.63,0-2.6,2.21-2.6,3.84C60.05,90.07,60.56,90.66,61.46,90.66Z"/></g></g></g></svg>